<svg xmlns="http://www.w3.org/2000/svg" width="26.004" height="29.888" viewBox="0 0 26.004 29.888">
  <g id="组_373-3" data-name="组 373-3" transform="translate(-595.017 -567.997)">
    <path id="路径_4378-4" data-name="路径 4378-4" d="M621.021,575.474l-2.156,1.269-10.911-6.255-8.581,4.988,10.814,6.216-2.158,1.233-13.012-7.455,13-7.474Z" transform="translate(0 0)" fill="#5babfd"/>
    <path id="路径_4380-4" data-name="路径 4380-4" d="M657.7,631.751l-2.147,1.228-.018,14.962,2.17-1.261S657.7,631.751,657.7,631.751Z" transform="translate(-47.516 -50.056)" fill="#178aff"/>
    <path id="路径_4382-4" data-name="路径 4382-4" d="M595.017,662.861v-2.482L608.06,667.9v2.516Z" transform="translate(0 -72.534)" fill="#178aff"/>
    <path id="路径_4383-4" data-name="路径 4383-4" d="M680.544,608.188l-4.717,6.049,2.569-1.12-.017,7.711s-5.389,3.1-5.4,3.149.012-3.612.012-3.612l-2.16,1.251,0,6.15,9.714-5.707Z" transform="translate(-59.524 -31.556)" fill="#178aff"/>
    <path id="路径_4384-4" data-name="路径 4384-4" d="M603.734,653.253l2.033,1.188,0,3.24-2.03-1.336Z" transform="translate(-6.844 -66.939)" fill="#178aff"/>
    <path id="路径_4386-4" data-name="路径 4386-4" d="M639.249,643.718l2.2,1.1v9.95l-2.228-1.058Z" transform="translate(-34.708 -59.452)" fill="#178aff"/>
    <path id="路径_4385-4" data-name="路径 4385-4" d="M621.082,648.17l2.044,1.252v6.592l-2.044-1.461Z" transform="translate(-20.465 -62.948)" fill="#178aff"/>
    <path id="路径_4387-4" data-name="路径 4387-4" d="M656.017,595.421l-3.441-1.984v2.357l.015,1.643Z" transform="translate(-45.193 -19.974)" fill="#5babfd"/>
  </g>
</svg>
