<svg xmlns="http://www.w3.org/2000/svg" xmlns:xlink="http://www.w3.org/1999/xlink" width="40" height="40" viewBox="0 0 40 40">
  <defs>
    <clipPath id="clip-path">
      <path id="路径_2" data-name="路径 2" d="M0,0H40V-40H0Z" fill="#1969ba"/>
    </clipPath>
    <clipPath id="clip-path-2">
      <path id="路径_4" data-name="路径 4" d="M37.7-24.065,20.85-35.748a1.391,1.391,0,0,0-1.6,0L2.3-24.065a.664.664,0,0,0,.417,1.212H6.118v18.18A.686.686,0,0,0,6.813-4h8.339a.686.686,0,0,0,.695-.673v-10.1h8.339v10.1A.686.686,0,0,0,24.881-4H33.22a.686.686,0,0,0,.695-.673v-18.18H37.32A.662.662,0,0,0,37.7-24.065Z" fill="none"/>
    </clipPath>
  </defs>
  <g id="shouye" transform="translate(-940 -520)">
    <g id="组_8" data-name="组 8">
      <g id="组_3" data-name="组 3" transform="translate(940 560)">
        <g id="组_1" data-name="组 1" clip-path="url(#clip-path)">
          <path id="路径_1" data-name="路径 1" d="M-1-41H41V1H-1Z" fill="#1969ba"/>
        </g>
        <g id="组_2" data-name="组 2" clip-path="url(#clip-path-2)">
          <path id="路径_3" data-name="路径 3" d="M.74-37.084H39.258V-3H.74Z" fill="#fff"/>
        </g>
      </g>
    </g>
  </g>
</svg>
