<svg t="1697192656440" class="icon" viewBox="0 0 1024 1024" version="1.1" xmlns="http://www.w3.org/2000/svg" p-id="1571" width="32" height="32"><path d="M951.296 677.376v-36.864c0-113.664-88.064-205.824-196.096-205.824-110.08 0-196.096 90.624-196.096 205.824v37.376c-23.552 6.656-39.936 28.16-39.936 53.248V952.32c0 30.72 25.088 55.296 55.296 55.296h361.472c30.72 0 55.296-25.088 55.296-55.296v-221.184c0-26.112-16.384-47.104-39.936-53.76z m-321.536-3.584v-34.816c0-74.752 56.32-135.68 125.44-135.68 70.144 0 125.44 59.392 125.44 135.68v34.816h-250.88z m160.768 227.84v-37.888c12.288-9.728 19.968-25.6 19.968-42.496 0-31.744-24.064-55.296-55.296-55.296-30.72 0-55.296 25.088-55.296 55.296 0 16.384 7.68 32.256 19.968 42.496v37.888c0 18.944 12.8 32.768 30.72 34.816h-160.768v-190.464h331.264V936.96h-160.768c17.408-2.56 30.208-16.384 30.208-35.328z" p-id="1572" fill="#ffffff"></path><path d="M850.432 419.84c0 20.48 14.848 35.328 35.328 35.328s35.328-14.848 35.328-35.328V299.008c0-23.552-14.848-50.688-33.792-61.44L509.952 16.896C488.96 4.096 460.8 3.584 440.32 16.896l-372.224 215.04c-20.992 12.8-35.328 37.888-35.328 60.928v437.76c0 23.552 14.336 48.128 35.84 61.44L457.216 1013.76c7.168 3.584 12.288 3.584 16.896 3.584 11.264 0 24.064-7.168 31.232-17.408l0.512-1.024c3.584-7.168 3.584-12.288 3.584-16.896v-451.072L850.432 343.04v76.8zM103.424 729.6V347.136l335.36 184.32V921.6l-335.36-192z m0 0z m0 0c-0.512 0-0.512 0 0 0zM473.088 77.824l343.552 200.704-345.088 189.952-346.624-189.952 347.136-200.704h1.024z" p-id="1573" fill="#ffffff"></path></svg>